<svg xmlns="http://www.w3.org/2000/svg" width="1600" height="1000" viewBox="0 0 1600 1000" fill="none">
  <defs>
    <linearGradient id="bg6" x1="0" y1="0" x2="1600" y2="1000" gradientUnits="userSpaceOnUse">
      <stop stop-color="#FFFFFF"/>
      <stop offset="1" stop-color="#F2F6FF"/>
    </linearGradient>
    <linearGradient id="banner6" x1="0" y1="0" x2="1" y2="1">
      <stop stop-color="#4F46E5"/>
      <stop offset="1" stop-color="#2563EB"/>
    </linearGradient>
  </defs>
  <rect width="1600" height="1000" fill="url(#bg6)"/>
  <rect x="64" y="40" width="1472" height="74" rx="16" fill="#FFFFFF" stroke="#D7E1F8"/>
  <rect x="108" y="70" width="150" height="16" rx="8" fill="#111827"/>
  <rect x="1010" y="70" width="92" height="16" rx="8" fill="#99A9C6" fill-opacity=".55"/>
  <rect x="1122" y="70" width="92" height="16" rx="8" fill="#99A9C6" fill-opacity=".55"/>
  <rect x="1234" y="70" width="92" height="16" rx="8" fill="#99A9C6" fill-opacity=".55"/>
  <rect x="1348" y="58" width="152" height="40" rx="20" fill="#111827"/>
  <rect x="110" y="150" width="1380" height="300" rx="28" fill="url(#banner6)"/>
  <rect x="170" y="220" width="240" height="14" rx="7" fill="#E9EEFF"/>
  <rect x="170" y="250" width="540" height="56" rx="16" fill="#FFF"/>
  <rect x="170" y="322" width="460" height="14" rx="7" fill="#D4DDFF"/>
  <rect x="170" y="348" width="390" height="14" rx="7" fill="#D4DDFF" fill-opacity=".75"/>
  <rect x="170" y="392" width="176" height="42" rx="21" fill="#FFF"/>
  <rect x="860" y="206" width="570" height="200" rx="18" fill="#1B2A55" fill-opacity=".35"/>
  <rect x="900" y="250" width="220" height="10" rx="5" fill="#DEE6FF"/>
  <rect x="900" y="272" width="320" height="10" rx="5" fill="#DEE6FF" fill-opacity=".65"/>
  <rect x="900" y="308" width="490" height="68" rx="12" fill="#FFFFFF" fill-opacity=".18"/>
  <rect x="110" y="486" width="440" height="412" rx="22" fill="#FFFFFF" stroke="#D7E1F8"/>
  <rect x="576" y="486" width="440" height="412" rx="22" fill="#FFFFFF" stroke="#D7E1F8"/>
  <rect x="1042" y="486" width="448" height="412" rx="22" fill="#FFFFFF" stroke="#D7E1F8"/>
  <rect x="156" y="548" width="210" height="12" rx="6" fill="#1F2937"/>
  <rect x="156" y="572" width="320" height="10" rx="5" fill="#94A3B8" fill-opacity=".6"/>
  <rect x="156" y="610" width="350" height="250" rx="16" fill="#F3F7FF"/>
  <rect x="622" y="548" width="220" height="12" rx="6" fill="#1F2937"/>
  <rect x="622" y="572" width="320" height="10" rx="5" fill="#94A3B8" fill-opacity=".6"/>
  <rect x="622" y="610" width="350" height="250" rx="16" fill="#F3F7FF"/>
  <rect x="1090" y="548" width="220" height="12" rx="6" fill="#1F2937"/>
  <rect x="1090" y="572" width="320" height="10" rx="5" fill="#94A3B8" fill-opacity=".6"/>
  <rect x="1090" y="610" width="350" height="250" rx="16" fill="#F3F7FF"/>
</svg>