<svg xmlns="http://www.w3.org/2000/svg" width="1600" height="1000" viewBox="0 0 1600 1000" fill="none">
  <defs>
    <linearGradient id="bg4" x1="0" y1="0" x2="1600" y2="1000" gradientUnits="userSpaceOnUse">
      <stop stop-color="#F5F7FF"/>
      <stop offset="1" stop-color="#EAF0FF"/>
    </linearGradient>
    <linearGradient id="pr4" x1="0" y1="0" x2="1" y2="1">
      <stop stop-color="#7C3AED"/>
      <stop offset="1" stop-color="#4F46E5"/>
    </linearGradient>
  </defs>
  <rect width="1600" height="1000" fill="url(#bg4)"/>
  <rect x="70" y="40" width="1460" height="76" rx="18" fill="#FFF" stroke="#D9E2FB"/>
  <rect x="120" y="72" width="170" height="14" rx="7" fill="#111827"/>
  <rect x="1010" y="72" width="88" height="14" rx="7" fill="#A1AFC8" fill-opacity=".6"/>
  <rect x="1118" y="72" width="88" height="14" rx="7" fill="#A1AFC8" fill-opacity=".6"/>
  <rect x="1226" y="72" width="88" height="14" rx="7" fill="#A1AFC8" fill-opacity=".6"/>
  <rect x="1332" y="60" width="168" height="38" rx="19" fill="url(#pr4)"/>
  <rect x="110" y="154" width="1380" height="340" rx="28" fill="url(#pr4)"/>
  <rect x="170" y="232" width="220" height="14" rx="7" fill="#ECE9FF"/>
  <rect x="170" y="262" width="500" height="58" rx="16" fill="#FFF"/>
  <rect x="170" y="334" width="450" height="14" rx="7" fill="#D5D0FF"/>
  <rect x="170" y="360" width="390" height="14" rx="7" fill="#D5D0FF" fill-opacity=".7"/>
  <rect x="170" y="404" width="170" height="46" rx="23" fill="#FFF"/>
  <rect x="360" y="404" width="190" height="46" rx="23" fill="#FFFFFF" fill-opacity=".22" stroke="#FFFFFF" stroke-opacity=".7"/>
  <rect x="890" y="206" width="530" height="250" rx="18" fill="#171A3A" fill-opacity=".5"/>
  <rect x="920" y="246" width="470" height="10" rx="5" fill="#DBE3FF"/>
  <rect x="920" y="268" width="430" height="10" rx="5" fill="#DBE3FF" fill-opacity=".7"/>
  <rect x="920" y="304" width="136" height="96" rx="12" fill="#EEF2FF" fill-opacity=".26"/>
  <rect x="1074" y="304" width="136" height="96" rx="12" fill="#EEF2FF" fill-opacity=".35"/>
  <rect x="1228" y="304" width="136" height="96" rx="12" fill="#EEF2FF" fill-opacity=".26"/>
  <rect x="110" y="528" width="320" height="370" rx="22" fill="#FFF" stroke="#D9E2FB"/>
  <rect x="450" y="528" width="700" height="370" rx="22" fill="#FFF" stroke="#D9E2FB"/>
  <rect x="1170" y="528" width="320" height="370" rx="22" fill="#FFF" stroke="#D9E2FB"/>
  <rect x="148" y="588" width="200" height="12" rx="6" fill="#1F2937"/>
  <rect x="148" y="612" width="240" height="10" rx="5" fill="#9AA9C7" fill-opacity=".6"/>
  <rect x="490" y="588" width="220" height="12" rx="6" fill="#1F2937"/>
  <rect x="490" y="612" width="600" height="10" rx="5" fill="#9AA9C7" fill-opacity=".6"/>
  <rect x="1210" y="588" width="180" height="12" rx="6" fill="#1F2937"/>
  <rect x="1210" y="612" width="220" height="10" rx="5" fill="#9AA9C7" fill-opacity=".6"/>
</svg>