<svg xmlns="http://www.w3.org/2000/svg" width="1600" height="1000" viewBox="0 0 1600 1000" fill="none">
  <defs>
    <linearGradient id="bg2" x1="0" y1="0" x2="1600" y2="1000" gradientUnits="userSpaceOnUse">
      <stop stop-color="#F8FAFF"/>
      <stop offset="1" stop-color="#EEF3FF"/>
    </linearGradient>
    <linearGradient id="accent2" x1="0" y1="0" x2="1" y2="1">
      <stop stop-color="#2563EB"/>
      <stop offset="1" stop-color="#4F46E5"/>
    </linearGradient>
  </defs>
  <rect width="1600" height="1000" fill="url(#bg2)"/>
  <rect x="72" y="42" width="1456" height="74" rx="16" fill="#FFFFFF" stroke="#DDE5F8"/>
  <rect x="116" y="72" width="130" height="16" rx="8" fill="#0F172A"/>
  <rect x="930" y="72" width="90" height="16" rx="8" fill="#94A3B8" fill-opacity=".55"/>
  <rect x="1040" y="72" width="90" height="16" rx="8" fill="#94A3B8" fill-opacity=".55"/>
  <rect x="1150" y="72" width="90" height="16" rx="8" fill="#94A3B8" fill-opacity=".55"/>
  <rect x="1260" y="60" width="228" height="40" rx="20" fill="url(#accent2)"/>
  <rect x="112" y="154" width="640" height="468" rx="26" fill="#FFFFFF" stroke="#DDE5F8"/>
  <rect x="800" y="154" width="688" height="468" rx="26" fill="#FFFFFF" stroke="#DDE5F8"/>
  <rect x="164" y="214" width="280" height="18" rx="9" fill="#1E293B"/>
  <rect x="164" y="248" width="360" height="54" rx="14" fill="#0F172A"/>
  <rect x="164" y="318" width="450" height="14" rx="7" fill="#64748B" fill-opacity=".65"/>
  <rect x="164" y="344" width="390" height="14" rx="7" fill="#64748B" fill-opacity=".45"/>
  <rect x="164" y="386" width="150" height="42" rx="21" fill="url(#accent2)"/>
  <rect x="330" y="386" width="146" height="42" rx="21" fill="#EEF2FF" stroke="#C9D6FF"/>
  <rect x="840" y="206" width="608" height="250" rx="18" fill="#0B1227"/>
  <rect x="870" y="244" width="268" height="10" rx="5" fill="#AAB8DD"/>
  <rect x="870" y="266" width="330" height="10" rx="5" fill="#AAB8DD" fill-opacity=".55"/>
  <rect x="870" y="302" width="170" height="86" rx="12" fill="#1D2A52"/>
  <rect x="1060" y="302" width="170" height="86" rx="12" fill="#263E8A"/>
  <rect x="1250" y="302" width="170" height="86" rx="12" fill="#1D2A52"/>
  <rect x="112" y="660" width="1376" height="278" rx="24" fill="#FFFFFF" stroke="#DDE5F8"/>
  <rect x="160" y="720" width="310" height="160" rx="14" fill="#F3F6FF"/>
  <rect x="500" y="720" width="310" height="160" rx="14" fill="#F3F6FF"/>
  <rect x="840" y="720" width="310" height="160" rx="14" fill="#F3F6FF"/>
  <rect x="1180" y="720" width="260" height="160" rx="14" fill="#0F172A"/>
</svg>