<svg xmlns="http://www.w3.org/2000/svg" width="1600" height="1000" viewBox="0 0 1600 1000" fill="none">
  <defs>
    <linearGradient id="bg3" x1="0" y1="0" x2="1600" y2="1000" gradientUnits="userSpaceOnUse">
      <stop stop-color="#0E111B"/>
      <stop offset="1" stop-color="#191F2F"/>
    </linearGradient>
  </defs>
  <rect width="1600" height="1000" fill="url(#bg3)"/>
  <rect x="66" y="44" width="1468" height="72" rx="14" fill="#111827" stroke="#334155"/>
  <rect x="106" y="70" width="120" height="18" rx="9" fill="#F1F5F9"/>
  <rect x="1140" y="70" width="90" height="18" rx="9" fill="#64748B" fill-opacity=".5"/>
  <rect x="1242" y="70" width="90" height="18" rx="9" fill="#64748B" fill-opacity=".5"/>
  <rect x="1344" y="60" width="150" height="36" rx="18" fill="#22C55E"/>
  <rect x="96" y="152" width="244" height="786" rx="18" fill="#0F172A" stroke="#334155"/>
  <rect x="130" y="206" width="170" height="12" rx="6" fill="#A4B3CF"/>
  <rect x="130" y="236" width="130" height="12" rx="6" fill="#A4B3CF" fill-opacity=".65"/>
  <rect x="130" y="306" width="180" height="44" rx="10" fill="#1E293B"/>
  <rect x="130" y="360" width="180" height="44" rx="10" fill="#1E293B"/>
  <rect x="130" y="414" width="180" height="44" rx="10" fill="#1E293B"/>
  <rect x="360" y="152" width="1174" height="220" rx="20" fill="#0F172A" stroke="#334155"/>
  <rect x="400" y="204" width="230" height="18" rx="9" fill="#E2E8F0"/>
  <rect x="400" y="236" width="400" height="44" rx="12" fill="#F8FAFC"/>
  <rect x="400" y="292" width="370" height="12" rx="6" fill="#8FA0C0" fill-opacity=".6"/>
  <rect x="400" y="320" width="270" height="12" rx="6" fill="#8FA0C0" fill-opacity=".4"/>
  <rect x="1160" y="200" width="320" height="124" rx="14" fill="#1E293B"/>
  <rect x="1190" y="228" width="120" height="10" rx="5" fill="#C8D3EA"/>
  <rect x="1190" y="248" width="200" height="10" rx="5" fill="#C8D3EA" fill-opacity=".6"/>
  <rect x="360" y="392" width="560" height="546" rx="20" fill="#0F172A" stroke="#334155"/>
  <rect x="952" y="392" width="582" height="260" rx="20" fill="#0F172A" stroke="#334155"/>
  <rect x="952" y="678" width="582" height="260" rx="20" fill="#0F172A" stroke="#334155"/>
  <rect x="400" y="440" width="220" height="14" rx="7" fill="#E2E8F0"/>
  <rect x="400" y="470" width="470" height="10" rx="5" fill="#8FA0C0" fill-opacity=".55"/>
  <rect x="400" y="492" width="440" height="10" rx="5" fill="#8FA0C0" fill-opacity=".35"/>
  <rect x="990" y="440" width="180" height="14" rx="7" fill="#E2E8F0"/>
  <rect x="990" y="706" width="180" height="14" rx="7" fill="#E2E8F0"/>
  <rect x="990" y="472" width="500" height="120" rx="12" fill="#1E293B"/>
  <rect x="990" y="738" width="500" height="120" rx="12" fill="#1E293B"/>
</svg>