<svg xmlns="http://www.w3.org/2000/svg" width="1600" height="1000" viewBox="0 0 1600 1000" fill="none">
  <defs>
    <linearGradient id="bg" x1="0" y1="0" x2="1600" y2="1000" gradientUnits="userSpaceOnUse">
      <stop stop-color="#0B1021"/>
      <stop offset="1" stop-color="#121A32"/>
    </linearGradient>
    <linearGradient id="hero" x1="220" y1="220" x2="1050" y2="560" gradientUnits="userSpaceOnUse">
      <stop stop-color="#4F46E5"/>
      <stop offset="1" stop-color="#7C3AED"/>
    </linearGradient>
  </defs>
  <rect width="1600" height="1000" fill="url(#bg)"/>
  <rect x="80" y="52" width="1440" height="72" rx="18" fill="#141D39" stroke="#2A365B"/>
  <circle cx="134" cy="88" r="16" fill="#4F46E5"/>
  <rect x="165" y="78" width="120" height="20" rx="10" fill="#E9EEFF" fill-opacity=".9"/>
  <rect x="990" y="78" width="78" height="20" rx="10" fill="#A7B3DA" fill-opacity=".35"/>
  <rect x="1090" y="78" width="78" height="20" rx="10" fill="#A7B3DA" fill-opacity=".35"/>
  <rect x="1190" y="78" width="78" height="20" rx="10" fill="#A7B3DA" fill-opacity=".35"/>
  <rect x="1300" y="70" width="170" height="36" rx="18" fill="#4F46E5"/>
  <rect x="120" y="180" width="920" height="370" rx="28" fill="url(#hero)"/>
  <rect x="168" y="238" width="360" height="22" rx="11" fill="#F7F8FF" fill-opacity=".82"/>
  <rect x="168" y="274" width="500" height="52" rx="14" fill="#FFF" fill-opacity=".95"/>
  <rect x="168" y="338" width="420" height="20" rx="10" fill="#D8DDFF" fill-opacity=".82"/>
  <rect x="168" y="372" width="390" height="20" rx="10" fill="#D8DDFF" fill-opacity=".72"/>
  <rect x="168" y="430" width="164" height="44" rx="22" fill="#FFF"/>
  <rect x="348" y="430" width="180" height="44" rx="22" fill="#FFFFFF" fill-opacity=".22" stroke="#FFFFFF" stroke-opacity=".55"/>
  <rect x="1080" y="180" width="400" height="370" rx="24" fill="#111A34" stroke="#2D3D65"/>
  <rect x="1120" y="222" width="320" height="188" rx="16" fill="#1A2750"/>
  <rect x="1120" y="430" width="150" height="14" rx="7" fill="#A8B4DD" fill-opacity=".65"/>
  <rect x="1120" y="456" width="250" height="14" rx="7" fill="#A8B4DD" fill-opacity=".45"/>
  <rect x="1120" y="488" width="210" height="42" rx="21" fill="#4F46E5"/>
  <rect x="120" y="598" width="420" height="300" rx="20" fill="#121C38" stroke="#2B3A60"/>
  <rect x="580" y="598" width="420" height="300" rx="20" fill="#121C38" stroke="#2B3A60"/>
  <rect x="1040" y="598" width="440" height="300" rx="20" fill="#121C38" stroke="#2B3A60"/>
  <rect x="160" y="650" width="180" height="14" rx="7" fill="#E6EBFF"/>
  <rect x="160" y="676" width="320" height="12" rx="6" fill="#A6B2DA" fill-opacity=".45"/>
  <rect x="620" y="650" width="200" height="14" rx="7" fill="#E6EBFF"/>
  <rect x="620" y="676" width="300" height="12" rx="6" fill="#A6B2DA" fill-opacity=".45"/>
  <rect x="1080" y="650" width="190" height="14" rx="7" fill="#E6EBFF"/>
  <rect x="1080" y="676" width="330" height="12" rx="6" fill="#A6B2DA" fill-opacity=".45"/>
</svg>