<svg xmlns="http://www.w3.org/2000/svg" viewBox="0 0 128 128" fill="none">
    <defs>
        <radialGradient id="bgGlow" cx="0" cy="0" r="1" gradientUnits="userSpaceOnUse" gradientTransform="translate(64 64) rotate(90) scale(60)">
            <stop stop-color="#7A72FF" stop-opacity="0.42"/>
            <stop offset="1" stop-color="#7A72FF" stop-opacity="0"/>
        </radialGradient>
        <linearGradient id="hexMain" x1="32" y1="20" x2="96" y2="108" gradientUnits="userSpaceOnUse">
            <stop stop-color="#AAB0FF"/>
            <stop offset="0.52" stop-color="#6A63FF"/>
            <stop offset="1" stop-color="#4A42D6"/>
        </linearGradient>
        <linearGradient id="hexInner" x1="46" y1="34" x2="82" y2="92" gradientUnits="userSpaceOnUse">
            <stop stop-color="#C8CDFF" stop-opacity="0.8"/>
            <stop offset="1" stop-color="#8D95FF" stop-opacity="0.2"/>
        </linearGradient>
    </defs>

    <circle cx="64" cy="64" r="50" fill="url(#bgGlow)"/>

    <path d="M64 16L103 38V82L64 104L25 82V38L64 16Z" fill="#0F1325"/>
    <path d="M64 22L97 41V79L64 98L31 79V41L64 22Z" fill="url(#hexMain)"/>
    <path d="M64 33L86.5 46V72L64 85L41.5 72V46L64 33Z" fill="url(#hexInner)" stroke="#DCE0FF" stroke-opacity="0.4"/>

    <path d="M23 48C42 40 56 40 77 49" stroke="#8F97FF" stroke-opacity="0.45" stroke-width="3" stroke-linecap="round"/>
    <path d="M51 89C68 92 84 86 104 72" stroke="#8F97FF" stroke-opacity="0.35" stroke-width="3" stroke-linecap="round"/>
</svg>
