<svg width="1200" height="760" viewBox="0 0 1200 760" fill="none" xmlns="http://www.w3.org/2000/svg">
  <defs>
    <linearGradient id="bg" x1="80" y1="30" x2="1120" y2="730" gradientUnits="userSpaceOnUse">
      <stop stop-color="#0F1425"/>
      <stop offset="1" stop-color="#1E2850"/>
    </linearGradient>
    <linearGradient id="hero" x1="0" y1="0" x2="1" y2="1">
      <stop stop-color="#6B63FF"/>
      <stop offset="1" stop-color="#3A6CFF"/>
    </linearGradient>
    <filter id="shadow" x="0" y="0" width="1200" height="760" filterUnits="userSpaceOnUse" color-interpolation-filters="sRGB">
      <feDropShadow dx="0" dy="18" stdDeviation="22" flood-color="#05070F" flood-opacity="0.4"/>
    </filter>
  </defs>

  <rect width="1200" height="760" fill="url(#bg)"/>
  <rect x="64" y="44" width="1072" height="672" rx="28" fill="#0C1121" stroke="#9EA8FF" stroke-opacity="0.18" filter="url(#shadow)"/>

  <rect x="64" y="44" width="1072" height="48" rx="28" fill="#131B33"/>
  <circle cx="96" cy="68" r="6" fill="#FF7D7D"/>
  <circle cx="118" cy="68" r="6" fill="#FFCF66"/>
  <circle cx="140" cy="68" r="6" fill="#7DDF8D"/>
  <rect x="176" y="58" width="440" height="20" rx="10" fill="#0B1020" stroke="#3B476F"/>

  <rect x="102" y="118" width="170" height="560" rx="18" fill="#111934"/>
  <rect x="124" y="152" width="126" height="12" rx="6" fill="#E1E5FF" fill-opacity="0.7"/>
  <rect x="124" y="184" width="110" height="10" rx="5" fill="#AEB8EF" fill-opacity="0.5"/>
  <rect x="124" y="230" width="126" height="38" rx="10" fill="#1C274A"/>
  <rect x="124" y="278" width="126" height="38" rx="10" fill="#1C274A"/>
  <rect x="124" y="326" width="126" height="38" rx="10" fill="#25335F"/>

  <rect x="294" y="118" width="804" height="216" rx="20" fill="#0F1730"/>
  <rect x="330" y="158" width="350" height="20" rx="10" fill="#F0F3FF" fill-opacity="0.9"/>
  <rect x="330" y="192" width="290" height="12" rx="6" fill="#B6C1F6" fill-opacity="0.62"/>
  <rect x="330" y="214" width="250" height="12" rx="6" fill="#B6C1F6" fill-opacity="0.48"/>
  <rect x="330" y="248" width="150" height="42" rx="21" fill="url(#hero)"/>

  <rect x="760" y="146" width="300" height="160" rx="16" fill="#111C3D"/>
  <path d="M790 260C830 220 860 188 900 198C936 207 944 251 981 250C1010 249 1028 220 1032 200" stroke="#8EA2FF" stroke-width="4" stroke-linecap="round"/>
  <circle cx="900" cy="198" r="6" fill="#6C8BFF"/>
  <circle cx="981" cy="250" r="6" fill="#8DA1FF"/>

  <rect x="294" y="354" width="250" height="156" rx="18" fill="#111A36"/>
  <rect x="572" y="354" width="250" height="156" rx="18" fill="#111A36"/>
  <rect x="850" y="354" width="248" height="156" rx="18" fill="#111A36"/>

  <rect x="322" y="384" width="110" height="10" rx="5" fill="#CAD3FF" fill-opacity="0.55"/>
  <rect x="322" y="410" width="82" height="38" rx="10" fill="#263A76"/>
  <rect x="414" y="410" width="82" height="38" rx="10" fill="#1B2A58"/>

  <rect x="600" y="384" width="120" height="10" rx="5" fill="#CAD3FF" fill-opacity="0.55"/>
  <rect x="600" y="410" width="190" height="14" rx="7" fill="#A7B4FF" fill-opacity="0.45"/>
  <rect x="600" y="434" width="156" height="14" rx="7" fill="#A7B4FF" fill-opacity="0.28"/>

  <rect x="880" y="384" width="90" height="10" rx="5" fill="#CAD3FF" fill-opacity="0.55"/>
  <circle cx="932" cy="443" r="38" fill="#283F7B"/>
  <path d="M912 444L927 458L952 430" stroke="#C8D5FF" stroke-width="6" stroke-linecap="round" stroke-linejoin="round"/>

  <rect x="294" y="532" width="804" height="146" rx="18" fill="#0E162E"/>
  <rect x="322" y="560" width="220" height="10" rx="5" fill="#CAD3FF" fill-opacity="0.5"/>
  <rect x="322" y="582" width="550" height="12" rx="6" fill="#A7B4FF" fill-opacity="0.32"/>
  <rect x="322" y="604" width="420" height="12" rx="6" fill="#A7B4FF" fill-opacity="0.22"/>
  <rect x="928" y="560" width="142" height="40" rx="20" fill="#4A6BFF"/>
</svg>
