<svg width="1200" height="760" viewBox="0 0 1200 760" fill="none" xmlns="http://www.w3.org/2000/svg">
  <defs>
    <linearGradient id="bg3" x1="0" y1="0" x2="1200" y2="760" gradientUnits="userSpaceOnUse">
      <stop stop-color="#0E1427"/>
      <stop offset="1" stop-color="#1A2450"/>
    </linearGradient>
    <linearGradient id="lineA" x1="0" y1="0" x2="1" y2="1">
      <stop stop-color="#78A5FF"/>
      <stop offset="1" stop-color="#7D73FF"/>
    </linearGradient>
  </defs>

  <rect width="1200" height="760" fill="url(#bg3)"/>
  <rect x="62" y="44" width="1076" height="672" rx="30" fill="#0C1224" stroke="#9EA9FF" stroke-opacity="0.2"/>

  <rect x="62" y="44" width="1076" height="48" rx="30" fill="#111A34"/>
  <rect x="182" y="58" width="430" height="20" rx="10" fill="#0A1020" stroke="#3A466E"/>

  <rect x="96" y="118" width="240" height="130" rx="16" fill="#111B38"/>
  <rect x="360" y="118" width="240" height="130" rx="16" fill="#111B38"/>
  <rect x="624" y="118" width="240" height="130" rx="16" fill="#111B38"/>
  <rect x="888" y="118" width="216" height="130" rx="16" fill="#15244B"/>

  <rect x="126" y="152" width="100" height="10" rx="5" fill="#CFD8FF" fill-opacity="0.6"/>
  <rect x="126" y="176" width="72" height="32" rx="8" fill="#2C417A"/>

  <rect x="390" y="152" width="96" height="10" rx="5" fill="#CFD8FF" fill-opacity="0.6"/>
  <rect x="390" y="176" width="80" height="32" rx="8" fill="#2C417A"/>

  <rect x="654" y="152" width="112" height="10" rx="5" fill="#CFD8FF" fill-opacity="0.6"/>
  <rect x="654" y="176" width="84" height="32" rx="8" fill="#2C417A"/>

  <rect x="916" y="152" width="110" height="10" rx="5" fill="#DCE3FF" fill-opacity="0.65"/>
  <rect x="916" y="176" width="150" height="10" rx="5" fill="#BAC6FF" fill-opacity="0.45"/>
  <rect x="916" y="196" width="124" height="10" rx="5" fill="#BAC6FF" fill-opacity="0.3"/>

  <rect x="96" y="270" width="706" height="290" rx="20" fill="#0F1831"/>
  <rect x="96" y="580" width="706" height="108" rx="20" fill="#0F1831"/>
  <rect x="826" y="270" width="278" height="418" rx="20" fill="#101A36"/>

  <path d="M132 510L214 454L276 470L354 402L426 424L502 362L578 392L660 318L760 352" stroke="url(#lineA)" stroke-width="5" stroke-linecap="round" stroke-linejoin="round"/>
  <path d="M132 532L214 506L276 520L354 480L426 502L502 452L578 474L660 432L760 454" stroke="#7A8DFF" stroke-opacity="0.45" stroke-width="4" stroke-linecap="round" stroke-linejoin="round"/>

  <circle cx="214" cy="454" r="7" fill="#7D9FFF"/>
  <circle cx="354" cy="402" r="7" fill="#7D9FFF"/>
  <circle cx="502" cy="362" r="7" fill="#7D9FFF"/>
  <circle cx="660" cy="318" r="7" fill="#7D9FFF"/>

  <rect x="132" y="610" width="180" height="12" rx="6" fill="#C8D2FF" fill-opacity="0.6"/>
  <rect x="132" y="632" width="520" height="10" rx="5" fill="#AEBBF6" fill-opacity="0.35"/>
  <rect x="132" y="650" width="460" height="10" rx="5" fill="#AEBBF6" fill-opacity="0.24"/>

  <rect x="854" y="304" width="220" height="96" rx="14" fill="#15244A"/>
  <rect x="854" y="422" width="220" height="96" rx="14" fill="#15244A"/>
  <rect x="854" y="540" width="220" height="120" rx="14" fill="#15244A"/>

  <rect x="880" y="334" width="130" height="10" rx="5" fill="#D1DBFF" fill-opacity="0.62"/>
  <rect x="880" y="356" width="100" height="10" rx="5" fill="#B9C6FF" fill-opacity="0.35"/>

  <rect x="880" y="452" width="140" height="10" rx="5" fill="#D1DBFF" fill-opacity="0.62"/>
  <rect x="880" y="474" width="92" height="10" rx="5" fill="#B9C6FF" fill-opacity="0.35"/>

  <circle cx="964" cy="595" r="42" fill="#2A3F79"/>
  <path d="M944 596L958 609L983 581" stroke="#D6DFFF" stroke-width="6" stroke-linecap="round" stroke-linejoin="round"/>
</svg>
