<svg width="1200" height="760" viewBox="0 0 1200 760" fill="none" xmlns="http://www.w3.org/2000/svg">
  <defs>
    <linearGradient id="bg2" x1="100" y1="0" x2="1100" y2="760" gradientUnits="userSpaceOnUse">
      <stop stop-color="#0E1428"/>
      <stop offset="1" stop-color="#253162"/>
    </linearGradient>
    <linearGradient id="cta" x1="0" y1="0" x2="1" y2="1">
      <stop stop-color="#7A78FF"/>
      <stop offset="1" stop-color="#4F84FF"/>
    </linearGradient>
  </defs>

  <rect width="1200" height="760" fill="url(#bg2)"/>
  <rect x="58" y="40" width="1084" height="680" rx="30" fill="#0C1225" stroke="#A1ACFF" stroke-opacity="0.2"/>

  <rect x="58" y="40" width="1084" height="50" rx="30" fill="#111A35"/>
  <circle cx="90" cy="66" r="6" fill="#FF8A8A"/>
  <circle cx="112" cy="66" r="6" fill="#FFD56B"/>
  <circle cx="134" cy="66" r="6" fill="#84E38E"/>
  <rect x="170" y="56" width="400" height="20" rx="10" fill="#0A1021" stroke="#3D4A73"/>

  <rect x="92" y="118" width="1016" height="112" rx="18" fill="#0F1832"/>
  <rect x="126" y="152" width="260" height="20" rx="10" fill="#EDF1FF" fill-opacity="0.9"/>
  <rect x="126" y="182" width="430" height="12" rx="6" fill="#B6C1F7" fill-opacity="0.58"/>
  <rect x="922" y="146" width="152" height="42" rx="21" fill="url(#cta)"/>

  <rect x="92" y="254" width="310" height="280" rx="20" fill="#111B39"/>
  <rect x="430" y="254" width="340" height="280" rx="20" fill="#15254C" stroke="#7A8BFF" stroke-opacity="0.4"/>
  <rect x="798" y="254" width="310" height="280" rx="20" fill="#111B39"/>

  <rect x="122" y="286" width="80" height="24" rx="12" fill="#263760"/>
  <rect x="122" y="326" width="160" height="14" rx="7" fill="#CFD7FF" fill-opacity="0.7"/>
  <rect x="122" y="350" width="104" height="36" rx="8" fill="#24325B"/>
  <rect x="122" y="402" width="220" height="10" rx="5" fill="#AEBBF6" fill-opacity="0.4"/>
  <rect x="122" y="422" width="180" height="10" rx="5" fill="#AEBBF6" fill-opacity="0.3"/>
  <rect x="122" y="470" width="130" height="38" rx="19" fill="#243763"/>

  <rect x="464" y="286" width="95" height="24" rx="12" fill="#4A6DFF"/>
  <rect x="464" y="326" width="170" height="14" rx="7" fill="#F5F7FF" fill-opacity="0.88"/>
  <rect x="464" y="350" width="120" height="36" rx="8" fill="#3F63F2"/>
  <rect x="464" y="402" width="250" height="10" rx="5" fill="#C7D3FF" fill-opacity="0.46"/>
  <rect x="464" y="422" width="230" height="10" rx="5" fill="#C7D3FF" fill-opacity="0.34"/>
  <rect x="464" y="470" width="160" height="38" rx="19" fill="url(#cta)"/>

  <rect x="828" y="286" width="92" height="24" rx="12" fill="#263760"/>
  <rect x="828" y="326" width="154" height="14" rx="7" fill="#CFD7FF" fill-opacity="0.7"/>
  <rect x="828" y="350" width="116" height="36" rx="8" fill="#24325B"/>
  <rect x="828" y="402" width="220" height="10" rx="5" fill="#AEBBF6" fill-opacity="0.4"/>
  <rect x="828" y="422" width="184" height="10" rx="5" fill="#AEBBF6" fill-opacity="0.3"/>
  <rect x="828" y="470" width="130" height="38" rx="19" fill="#243763"/>

  <rect x="92" y="556" width="1016" height="132" rx="18" fill="#0F1730"/>
  <rect x="122" y="586" width="210" height="12" rx="6" fill="#C9D3FF" fill-opacity="0.6"/>
  <rect x="122" y="608" width="560" height="10" rx="5" fill="#AEBBF6" fill-opacity="0.35"/>
  <rect x="122" y="626" width="500" height="10" rx="5" fill="#AEBBF6" fill-opacity="0.24"/>
  <circle cx="1010" cy="621" r="28" fill="#314A8B"/>
  <path d="M995 621L1007 633L1025 612" stroke="#D7E0FF" stroke-width="5" stroke-linecap="round" stroke-linejoin="round"/>
</svg>
