<svg width="1200" height="760" viewBox="0 0 1200 760" fill="none" xmlns="http://www.w3.org/2000/svg">
  <defs>
    <linearGradient id="bg6" x1="20" y1="0" x2="1180" y2="760" gradientUnits="userSpaceOnUse">
      <stop stop-color="#0D1326"/>
      <stop offset="1" stop-color="#212F63"/>
    </linearGradient>
    <linearGradient id="buy" x1="0" y1="0" x2="1" y2="1">
      <stop stop-color="#7D79FF"/>
      <stop offset="1" stop-color="#4D84FF"/>
    </linearGradient>
  </defs>

  <rect width="1200" height="760" fill="url(#bg6)"/>
  <rect x="56" y="40" width="1088" height="680" rx="30" fill="#0B1122" stroke="#A0ACFF" stroke-opacity="0.22"/>

  <rect x="56" y="40" width="1088" height="52" rx="30" fill="#101933"/>
  <rect x="176" y="56" width="430" height="20" rx="10" fill="#0A1020" stroke="#3C4973"/>

  <rect x="94" y="118" width="712" height="86" rx="16" fill="#0F1832"/>
  <rect x="128" y="148" width="220" height="12" rx="6" fill="#D4DCFF" fill-opacity="0.62"/>
  <rect x="128" y="170" width="520" height="10" rx="5" fill="#B5C2F8" fill-opacity="0.36"/>

  <rect x="94" y="226" width="220" height="462" rx="18" fill="#101A36"/>
  <rect x="336" y="226" width="470" height="462" rx="18" fill="#101A36"/>
  <rect x="828" y="118" width="278" height="570" rx="18" fill="#101A36"/>

  <rect x="122" y="260" width="90" height="10" rx="5" fill="#CED8FF" fill-opacity="0.58"/>
  <rect x="122" y="284" width="150" height="34" rx="8" fill="#1A2A57"/>
  <rect x="122" y="328" width="150" height="34" rx="8" fill="#1A2A57"/>
  <rect x="122" y="372" width="150" height="34" rx="8" fill="#1A2A57"/>
  <rect x="122" y="416" width="150" height="34" rx="8" fill="#1A2A57"/>

  <rect x="366" y="260" width="200" height="186" rx="14" fill="#15244A"/>
  <rect x="576" y="260" width="200" height="186" rx="14" fill="#15244A"/>
  <rect x="366" y="456" width="200" height="186" rx="14" fill="#15244A"/>
  <rect x="576" y="456" width="200" height="186" rx="14" fill="#15244A"/>

  <circle cx="466" cy="326" r="44" fill="#314A8B"/>
  <circle cx="676" cy="326" r="44" fill="#314A8B"/>
  <circle cx="466" cy="522" r="44" fill="#314A8B"/>
  <circle cx="676" cy="522" r="44" fill="#314A8B"/>

  <rect x="388" y="386" width="152" height="10" rx="5" fill="#D4DCFF" fill-opacity="0.62"/>
  <rect x="598" y="386" width="152" height="10" rx="5" fill="#D4DCFF" fill-opacity="0.62"/>
  <rect x="388" y="582" width="152" height="10" rx="5" fill="#D4DCFF" fill-opacity="0.62"/>
  <rect x="598" y="582" width="152" height="10" rx="5" fill="#D4DCFF" fill-opacity="0.62"/>

  <rect x="860" y="152" width="214" height="140" rx="14" fill="#15244A"/>
  <rect x="860" y="308" width="214" height="220" rx="14" fill="#15244A"/>
  <rect x="860" y="544" width="214" height="112" rx="14" fill="#15244A"/>

  <rect x="886" y="184" width="120" height="10" rx="5" fill="#D4DCFF" fill-opacity="0.62"/>
  <rect x="886" y="208" width="160" height="10" rx="5" fill="#B5C2F8" fill-opacity="0.34"/>

  <rect x="886" y="340" width="90" height="10" rx="5" fill="#D4DCFF" fill-opacity="0.62"/>
  <path d="M886 396H1048" stroke="#B5C2F8" stroke-opacity="0.35" stroke-width="8" stroke-linecap="round"/>
  <path d="M886 422H1022" stroke="#B5C2F8" stroke-opacity="0.25" stroke-width="8" stroke-linecap="round"/>
  <rect x="886" y="472" width="160" height="40" rx="20" fill="url(#buy)"/>

  <rect x="886" y="578" width="120" height="10" rx="5" fill="#D4DCFF" fill-opacity="0.62"/>
  <rect x="886" y="600" width="160" height="10" rx="5" fill="#B5C2F8" fill-opacity="0.34"/>
</svg>
